<?xml version="1.0" encoding="UTF-8" standalone="no"?>
<svg
   id="visual"
   viewBox="0 0 900 600"
   width="900"
   height="600"
   version="1.1"
   sodipodi:docname="login-background.svg"
   inkscape:export-filename="../d4750672/background.svg"
   inkscape:export-xdpi="96"
   inkscape:export-ydpi="96"
   xmlns:inkscape="http://www.inkscape.org/namespaces/inkscape"
   xmlns:sodipodi="http://sodipodi.sourceforge.net/DTD/sodipodi-0.dtd"
   xmlns="http://www.w3.org/2000/svg"
   xmlns:svg="http://www.w3.org/2000/svg">
  <defs
     id="defs31" />
  <sodipodi:namedview
     id="namedview29"
     pagecolor="#ffffff"
     bordercolor="#000000"
     borderopacity="0.25"
     inkscape:showpageshadow="2"
     inkscape:pageopacity="0.0"
     inkscape:pagecheckerboard="0"
     inkscape:deskcolor="#d1d1d1"
     showgrid="false" />
  <path
     d="m 0,67 13.7,-5 c 13.6,-5 41,-15 68.3,-15 27.3,0 54.7,10 81.8,21 27.2,11 54.2,23 81.4,19 27.1,-4 54.5,-24 81.8,-33 27.3,-9 54.7,-7 82,-1 27.3,6 54.7,16 82,24 27.3,8 54.7,14 82,17 27.3,3 54.7,3 81.8,-5 27.2,-8 54.2,-24 81.4,-28 27.1,-4 54.5,4 81.8,5 27.3,1 54.7,-5 68.3,-8 L 900,55 V 0 H 886.3 C 872.7,0 845.3,0 818,0 790.7,0 763.3,0 736.2,0 709,0 682,0 654.8,0 627.7,0 600.3,0 573,0 545.7,0 518.3,0 491,0 463.7,0 436.3,0 409,0 381.7,0 354.3,0 327,0 299.7,0 272.3,0 245.2,0 218,0 191,0 163.8,0 136.7,0 109.3,0 82,0 54.7,0 27.3,0 13.7,0 H 0 Z"
     fill="#c5d2ff"
     id="path18"
     style="fill:#fff1c3;fill-opacity:1" />
  <path
     d="m 0,181 13.7,-12 c 13.6,-12 41,-36 68.3,-45 27.3,-9 54.7,-3 81.8,6 27.2,9 54.2,21 81.4,17 27.1,-4 54.5,-24 81.8,-25 27.3,-1 54.7,17 82,30 27.3,13 54.7,21 82,20 27.3,-1 54.7,-11 82,-10 27.3,1 54.7,13 81.8,16 27.2,3 54.2,-3 81.4,0 27.1,3 54.5,15 81.8,23 27.3,8 54.7,12 68.3,14 l 13.7,2 V 53 l -13.7,3 c -13.6,3 -41,9 -68.3,8 C 790.7,63 763.3,55 736.2,59 709,63 682,79 654.8,87 627.7,95 600.3,95 573,92 545.7,89 518.3,83 491,75 463.7,67 436.3,57 409,51 381.7,45 354.3,43 327,52 299.7,61 272.3,81 245.2,85 218,89 191,77 163.8,66 136.7,55 109.3,45 82,45 54.7,45 27.3,55 13.7,60 L 0,65 Z"
     fill="#afbffc"
     id="path20"
     style="fill:#ffe99d;fill-opacity:1" />
  <path
     d="m 0,397 13.7,-14 c 13.6,-14 41,-42 68.3,-68 27.3,-26 54.7,-50 81.8,-57 27.2,-7 54.2,3 81.4,21 27.1,18 54.5,44 81.8,72 27.3,28 54.7,58 82,58 27.3,0 54.7,-30 82,-58 27.3,-28 54.7,-54 82,-45 27.3,9 54.7,53 81.8,65 27.2,12 54.2,-8 81.4,-7 27.1,1 54.5,23 81.8,41 27.3,18 54.7,32 68.3,39 l 13.7,7 V 215 l -13.7,-2 c -13.6,-2 -41,-6 -68.3,-14 -27.3,-8 -54.7,-20 -81.8,-23 -27.2,-3 -54.2,3 -81.4,0 -27.1,-3 -54.5,-15 -81.8,-16 -27.3,-1 -54.7,9 -82,10 -27.3,1 -54.7,-7 -82,-20 -27.3,-13 -54.7,-31 -82,-30 -27.3,1 -54.7,21 -81.8,25 -27.2,4 -54.2,-8 -81.4,-17 -27.1,-9 -54.5,-15 -81.8,-6 -27.3,9 -54.7,33 -68.3,45 L 0,179 Z"
     fill="#9aacf9"
     id="path22"
     style="fill:#ffd267;fill-opacity:1" />
  <path
     d="m 0,541 h 13.7 c 13.6,0 41,0 68.3,-2 27.3,-2 54.7,-6 81.8,-3 27.2,3 54.2,13 81.4,3 27.1,-10 54.5,-40 81.8,-43 27.3,-3 54.7,21 82,23 27.3,2 54.7,-18 82,-27 27.3,-9 54.7,-7 82,2 27.3,9 54.7,25 81.8,33 27.2,8 54.2,8 81.4,11 27.1,3 54.5,9 81.8,12 27.3,3 54.7,3 68.3,3 H 900 V 449 l -13.7,-7 c -13.6,-7 -41,-21 -68.3,-39 -27.3,-18 -54.7,-40 -81.8,-41 -27.2,-1 -54.2,19 -81.4,7 -27.1,-12 -54.5,-56 -81.8,-65 -27.3,-9 -54.7,17 -82,45 -27.3,28 -54.7,58 -82,58 -27.3,0 -54.7,-30 -82,-58 C 299.7,321 272.3,295 245.2,277 218,259 191,249 163.8,256 136.7,263 109.3,287 82,313 54.7,339 27.3,367 13.7,381 L 0,395 Z"
     fill="#8599f5"
     id="path24"
     style="fill:#ffb952;fill-opacity:1" />
  <path
     d="m 0,601 h 13.7 c 13.6,0 41,0 68.3,0 27.3,0 54.7,0 81.8,0 27.2,0 54.2,0 81.4,0 27.1,0 54.5,0 81.8,0 27.3,0 54.7,0 82,0 27.3,0 54.7,0 82,0 27.3,0 54.7,0 82,0 27.3,0 54.7,0 81.8,0 27.2,0 54.2,0 81.4,0 27.1,0 54.5,0 81.8,0 27.3,0 54.7,0 68.3,0 H 900 v -50 h -13.7 c -13.6,0 -41,0 -68.3,-3 -27.3,-3 -54.7,-9 -81.8,-12 -27.2,-3 -54.2,-3 -81.4,-11 -27.1,-8 -54.5,-24 -81.8,-33 -27.3,-9 -54.7,-11 -82,-2 -27.3,9 -54.7,29 -82,27 -27.3,-2 -54.7,-26 -82,-23 -27.3,3 -54.7,33 -81.8,43 -27.2,10 -54.2,0 -81.4,-3 -27.1,-3 -54.5,1 -81.8,3 -27.3,2 -54.7,2 -68.3,2 H 0 Z"
     fill="#7185f1"
     id="path26"
     style="fill:#ffc66f;fill-opacity:1;stroke:none;stroke-opacity:1" />
</svg>
