<?xml version="1.0" encoding="UTF-8" standalone="no"?>
<svg
   version="1.1"
   viewBox="0 0 609.28644 127.7606"
   matcher="0.8847223491960083"
   id="svg3306"
   sodipodi:docname="logo.svg"
   width="609.28644"
   height="127.7606"
   inkscape:export-filename="../adfb6902/logo1.svg"
   inkscape:export-xdpi="96"
   inkscape:export-ydpi="96"
   inkscape:version="1.3.1 (9b9bdc1480, 2023-11-25, custom)"
   xmlns:inkscape="http://www.inkscape.org/namespaces/inkscape"
   xmlns:sodipodi="http://sodipodi.sourceforge.net/DTD/sodipodi-0.dtd"
   xmlns="http://www.w3.org/2000/svg"
   xmlns:svg="http://www.w3.org/2000/svg">
  <defs
     id="defs3310" />
  <sodipodi:namedview
     id="namedview3308"
     pagecolor="#ffffff"
     bordercolor="#000000"
     borderopacity="0.25"
     inkscape:showpageshadow="2"
     inkscape:pageopacity="0.0"
     inkscape:pagecheckerboard="0"
     inkscape:deskcolor="#d1d1d1"
     showgrid="false"
     inkscape:zoom="2.046875"
     inkscape:cx="-63.267176"
     inkscape:cy="88.916031"
     inkscape:window-width="5050"
     inkscape:window-height="1376"
     inkscape:window-x="70"
     inkscape:window-y="27"
     inkscape:window-maximized="1"
     inkscape:current-layer="g3712" />
  <g
     id="g3712"
     style="display:inline"
     transform="translate(-6.0720362)">
    <g
       id="g3283"
       style="display:inline"
       transform="scale(0.62396177)">
      <svg
         viewBox="0 0 214.48852 214.48852"
         height="214.48853"
         width="214.48853"
         version="1.1"
         id="svg3281"
         style="display:inline">
        <g
           id="g3253"
           style="display:inline">
          <svg
             version="1.1"
             id="svg3251"
             width="100%"
             height="100%"
             inkscape:label="svg3251"
             style="display:inline" />
        </g>
        <g
           id="icon-0"
           style="display:inline">
          <svg
             viewBox="0 0 214.48852 214.48852"
             height="214.48853"
             width="214.48853"
             version="1.1"
             id="svg3278"
             style="display:inline">
            <g
               id="g3259"
               style="display:inline">
              <rect
                 width="195.02567"
                 height="195.02567"
                 x="9.7314234"
                 y="9.7314234"
                 fill="#f7d65a"
                 data-fill-palette-color="accent"
                 id="rect3255"
                 style="fill:#ffc444;fill-opacity:1" />
              <rect
                 width="195.02567"
                 height="195.02567"
                 x="19.462847"
                 y="-5.3290705e-15"
                 fill="#f7d65a"
                 opacity="0.5"
                 data-fill-palette-color="accent"
                 id="rect3257"
                 style="fill:#ffdc8f;fill-opacity:1" />
            </g>
            <g
               transform="translate(27.804067,34.41573)"
               id="g3276"
               style="display:inline">
              <svg
                 viewBox="0 0 158.88038 145.65706"
                 height="145.65706"
                 width="158.88039"
                 version="1.1"
                 id="svg3274"
                 style="display:inline">
                <g
                   id="g3272"
                   style="display:inline">
                  <svg
                     version="1.1"
                     x="0"
                     y="0"
                     viewBox="7.977006 11.475 84.045998 77.051003"
                     enable-background="new 0 0 100 100"
                     xml:space="preserve"
                     height="145.65706"
                     width="158.88039"
                     class="icon-y-0"
                     data-fill-palette-color="quaternary"
                     id="y-0"
                     style="display:inline"><g
                       fill="#fdfbe2"
                       data-fill-palette-color="quaternary"
                       id="g3269"><path
                         d="m 25.721,40.943 c -0.242,-0.062 -0.488,-0.094 -0.733,-0.094 -1.333,0 -2.496,0.903 -2.83,2.196 -0.4,1.56 0.543,3.157 2.104,3.56 1.551,0.402 3.167,-0.571 3.562,-2.102 0.402,-1.561 -0.542,-3.159 -2.103,-3.56 z"
                         fill="#fdfbe2"
                         data-fill-palette-color="quaternary"
                         id="path3261" /><path
                         d="m 67.898,29.559 c -0.241,-0.062 -0.487,-0.094 -0.731,-0.094 -1.332,0 -2.494,0.904 -2.827,2.198 -0.195,0.757 -0.083,1.544 0.313,2.216 0.397,0.672 1.032,1.148 1.788,1.342 1.566,0.408 3.167,-0.568 3.562,-2.1 0.194,-0.756 0.083,-1.543 -0.314,-2.216 -0.398,-0.673 -1.034,-1.152 -1.791,-1.346 z"
                         fill="#fdfbe2"
                         data-fill-palette-color="quaternary"
                         id="path3263" /><path
                         d="m 50.584,47.346 c -0.24,-0.062 -0.486,-0.093 -0.731,-0.093 -1.332,0 -2.494,0.903 -2.827,2.196 -0.196,0.757 -0.084,1.544 0.312,2.217 0.396,0.673 1.032,1.149 1.787,1.344 1.563,0.401 3.166,-0.571 3.56,-2.1 0.402,-1.564 -0.54,-3.161 -2.101,-3.564 z"
                         fill="#fdfbe2"
                         data-fill-palette-color="quaternary"
                         id="path3265" /><path
                         d="m 88.678,38.92 c 0.084,-0.613 0.143,-1.234 0.143,-1.871 0,-6.816 -4.968,-12.46 -11.476,-13.543 -3.297,-5.928 -9.617,-9.943 -16.88,-9.943 -2.505,0 -4.891,0.492 -7.086,1.36 -2.682,-2.153 -6.08,-3.448 -9.785,-3.448 -4.819,0 -9.125,2.18 -11.997,5.604 -1.009,-0.242 -2.056,-0.385 -3.138,-0.385 -7.344,0 -13.301,5.911 -13.388,13.235 -4.245,2.557 -7.094,7.196 -7.094,12.513 0,8.069 6.544,14.612 14.615,14.612 0.171,0 0.337,-0.02 0.507,-0.025 3.237,5.773 9.35,9.704 16.4,9.864 1.442,5.739 2.426,12.88 2.426,20.209 0,0.786 0.64,1.424 1.427,1.424 h 7.131 c 0.787,0 1.427,-0.638 1.427,-1.424 0,-7.687 1.082,-15.162 2.641,-21.035 1.849,1.076 3.99,1.703 6.282,1.703 3.494,0 6.649,-1.432 8.921,-3.737 1.837,0.715 3.827,1.121 5.917,1.121 9.031,0 16.352,-7.32 16.352,-16.352 -10e-4,-3.718 -1.255,-7.135 -3.345,-9.882 z m -16.05,-5.123 c -0.641,2.491 -2.882,4.23 -5.45,4.23 -0.475,0 -0.95,-0.061 -1.413,-0.181 -0.509,-0.13 -0.976,-0.35 -1.418,-0.606 l -9.71,9.972 c 0.781,1.262 1.072,2.826 0.673,4.374 -0.641,2.489 -2.882,4.229 -5.45,4.229 -0.474,0 -0.949,-0.061 -1.411,-0.18 -1.455,-0.374 -2.68,-1.294 -3.445,-2.591 -0.765,-1.297 -0.979,-2.814 -0.603,-4.272 0.123,-0.478 0.321,-0.917 0.553,-1.333 l -5.218,-4.896 -9.125,1.614 c -0.023,0.34 -0.073,0.682 -0.161,1.023 -0.644,2.491 -2.886,4.23 -5.454,4.23 -0.474,0 -0.949,-0.061 -1.411,-0.18 -3.006,-0.775 -4.824,-3.853 -4.052,-6.86 0.644,-2.492 2.887,-4.231 5.456,-4.231 0.473,0 0.947,0.06 1.409,0.179 1.729,0.444 3.062,1.653 3.738,3.17 l 9.795,-1.733 c 0.421,-0.077 0.853,0.054 1.164,0.346 l 5.711,5.359 c 0.888,-0.575 1.931,-0.918 3.047,-0.918 0.473,0 0.947,0.06 1.408,0.179 0.518,0.133 0.996,0.339 1.436,0.597 l 9.697,-9.958 c -0.021,-0.036 -0.052,-0.065 -0.073,-0.101 -0.767,-1.296 -0.981,-2.813 -0.605,-4.271 0.64,-2.492 2.882,-4.233 5.452,-4.233 0.473,0 0.947,0.061 1.408,0.18 1.458,0.375 2.683,1.296 3.448,2.594 0.765,1.295 0.979,2.811 0.604,4.268 z"
                         fill="#fdfbe2"
                         data-fill-palette-color="quaternary"
                         id="path3267" /></g></svg>
                </g>
              </svg>
            </g>
          </svg>
        </g>
      </svg>
    </g>
    <path
       d="M 173.56261,98.990838 H 162.63114 V 18.121485 h 39.25925 l -1.17542,8.463071 h -27.15236 v 28.21024 h 23.50853 v 8.463073 h -23.50853 z m 51.71877,1.528062 q -5.64205,0 -8.93325,-3.408753 -3.29119,-3.408725 -3.29119,-9.520948 v 0 -75.46239 l 10.57884,-1.175427 V 87.23658 q 0,4.584151 3.76136,4.584151 v 0 q 1.52806,0 3.40875,-0.705264 v 0 l 2.35085,7.405207 q -3.76136,1.998226 -7.87536,1.998226 z m 19.39454,-63.355504 h 10.57884 v 61.827442 h -10.57884 z m 5.28943,-29.1505803 q 3.05611,0 4.98381,1.9982263 1.95119,1.998224 1.95119,4.936791 v 0 q 0,2.938569 -1.88067,4.866265 -1.88069,1.951211 -5.05433,1.951211 v 0 q -3.0561,0 -5.00733,-1.951211 -1.92768,-1.927696 -1.92768,-4.866265 v 0 q 0,-2.938567 1.92768,-4.936791 1.95123,-1.9982263 5.00733,-1.9982263 z m 50.99,27.6225263 q 10.10868,0 15.23355,8.345529 5.10133,8.34553 5.10133,23.861162 v 0 q 0,15.045462 -5.68906,23.861154 -5.71257,8.815713 -15.93878,8.815713 v 0 q -9.16835,0 -14.81038,-7.405186 v 0 29.385656 l -10.57885,1.29298 V 37.163396 h 9.28588 l 0.58772,8.345529 q 6.34728,-9.873583 16.80859,-9.873583 z m -3.76137,56.42049 q 13.04723,0 13.04723,-24.096256 v 0 q 0,-12.577065 -2.98557,-18.289641 -3.0091,-5.689064 -9.12132,-5.689064 v 0 q -4.114,0 -7.28764,2.468396 -3.17364,2.468396 -5.99467,6.699934 v 0 31.266348 q 4.81925,7.640283 12.34197,7.640283 z m 100.96916,-73.934347 6.22975,80.869353 h -10.4613 l -2.46837,-36.555767 q -1.64561,-24.566419 -1.76315,-33.852289 v 0 L 374.18444,89.822509 H 363.95821 L 347.73735,28.582782 q 0.11753,10.226212 -1.293,34.087372 v 0 l -2.35083,36.320684 h -10.34375 l 6.22974,-80.869353 h 14.22267 l 15.04547,59.829217 14.45773,-59.829217 z m 65.58881,48.07495 q 0,2.468397 -0.23509,5.524506 v 0 h -35.96805 q 0.47018,10.813924 4.34907,15.562645 3.87891,4.772246 10.57886,4.772246 v 0 q 4.23151,0 7.56974,-1.292983 3.36171,-1.292972 7.00553,-4.231533 v 0 l 4.70172,6.229754 q -8.69817,7.75783 -19.74717,7.75783 v 0 q -12.10689,0 -18.75982,-8.416063 -6.6294,-8.392545 -6.6294,-23.555548 v 0 q 0,-15.163004 6.34731,-24.04923 6.34731,-8.862717 17.63139,-8.862717 v 0 q 11.16657,0 17.16124,7.922376 5.99467,7.945884 5.99467,22.638717 z m -10.22622,-1.880683 v -1.292969 q 0,-19.394539 -12.81213,-19.394539 v 0 q -5.87714,0 -9.28588,4.866266 -3.40873,4.889775 -3.87891,15.821242 v 0 z m 82.04478,-28.68041 q 6.69994,0 10.69641,4.98381 3.99645,5.007315 3.99645,13.352845 v 0 45.018841 H 539.80206 V 55.147425 q 0,-11.284098 -7.28766,-11.284098 v 0 q -7.05254,0 -12.92969,10.813926 v 0 44.313585 H 509.12342 V 55.147425 q 0,-11.284098 -7.28765,-11.284098 v 0 q -7.17012,0 -12.92969,10.813926 v 0 44.313585 H 478.44479 V 37.163396 h 9.16831 l 0.82282,9.050786 q 6.81746,-10.57884 16.45595,-10.57884 v 0 q 5.05435,0 8.58063,2.938566 3.52627,2.938566 5.05433,8.345529 v 0 q 7.1701,-11.284095 17.04368,-11.284095 z m 54.75139,0 q 11.87179,0 18.4542,8.345529 6.58238,8.34553 6.58238,23.978705 v 0 q 0,15.045461 -6.69994,23.790629 -6.69992,8.768695 -18.45419,8.768695 v 0 q -11.8718,0 -18.50121,-8.580624 -6.65292,-8.580611 -6.65292,-23.861159 v 0 q 0,-15.398089 6.69994,-23.931686 6.69993,-8.510089 18.57174,-8.510089 z m 0,8.463072 q -6.93501,0 -10.57884,5.806607 -3.64382,5.830117 -3.64382,18.172096 v 0 q 0,24.096233 14.10511,24.096233 v 0 q 14.10512,0 14.10512,-24.213774 v 0 q 0,-12.34198 -3.52627,-18.10157 -3.52629,-5.759592 -10.4613,-5.759592 z"
       opacity="1"
       fill="#ceb700"
       class="wordmark-text-0"
       data-fill-palette-color="primary"
       id="text-0-3"
       style="display:inline;fill:#ffc444;fill-opacity:1;stroke-width:2.35085" />
  </g>
</svg>
