<?xml version="1.0" encoding="UTF-8" standalone="no"?>
<svg
   version="1.1"
   viewBox="0 0 127.7606 127.7606"
   matcher="0.8847223491960083"
   id="svg3306"
   width="127.7606"
   height="127.7606"
   xmlns="http://www.w3.org/2000/svg"
   xmlns:svg="http://www.w3.org/2000/svg">
  <defs
     id="defs3310" />
  <g
     id="g3712"
     style="display:inline"
     transform="translate(-6.0720362)">
    <g
       id="g3283"
       style="display:inline"
       transform="scale(0.62396177)">
      <svg
         viewBox="0 0 214.48852 214.48852"
         height="214.48853"
         width="214.48853"
         version="1.1"
         id="svg3281">
        <g
           id="g3253">
          <svg
             version="1.1"
             id="svg3251"
             width="100%"
             height="100%" />
        </g>
        <g
           id="icon-0">
          <svg
             viewBox="0 0 214.48852 214.48852"
             height="214.48853"
             width="214.48853"
             version="1.1"
             id="svg3278">
            <g
               id="g3259">
              <rect
                 width="195.02567"
                 height="195.02567"
                 x="9.7314234"
                 y="9.7314234"
                 fill="#f7d65a"
                 data-fill-palette-color="accent"
                 id="rect3255" />
              <rect
                 width="195.02567"
                 height="195.02567"
                 x="19.462847"
                 y="-5.3290705e-15"
                 fill="#f7d65a"
                 opacity="0.5"
                 data-fill-palette-color="accent"
                 id="rect3257" />
            </g>
            <g
               transform="translate(27.804067,34.41573)"
               id="g3276">
              <svg
                 viewBox="0 0 158.88038 145.65706"
                 height="145.65706"
                 width="158.88039"
                 version="1.1"
                 id="svg3274">
                <g
                   id="g3272">
                  <svg
                     version="1.1"
                     x="0"
                     y="0"
                     viewBox="7.977006 11.475 84.045998 77.051003"
                     enable-background="new 0 0 100 100"
                     xml:space="preserve"
                     height="145.65706"
                     width="158.88039"
                     class="icon-y-0"
                     data-fill-palette-color="quaternary"
                     id="y-0"><g
                       fill="#fdfbe2"
                       data-fill-palette-color="quaternary"
                       id="g3269"><path
                         d="m 25.721,40.943 c -0.242,-0.062 -0.488,-0.094 -0.733,-0.094 -1.333,0 -2.496,0.903 -2.83,2.196 -0.4,1.56 0.543,3.157 2.104,3.56 1.551,0.402 3.167,-0.571 3.562,-2.102 0.402,-1.561 -0.542,-3.159 -2.103,-3.56 z"
                         fill="#fdfbe2"
                         data-fill-palette-color="quaternary"
                         id="path3261" /><path
                         d="m 67.898,29.559 c -0.241,-0.062 -0.487,-0.094 -0.731,-0.094 -1.332,0 -2.494,0.904 -2.827,2.198 -0.195,0.757 -0.083,1.544 0.313,2.216 0.397,0.672 1.032,1.148 1.788,1.342 1.566,0.408 3.167,-0.568 3.562,-2.1 0.194,-0.756 0.083,-1.543 -0.314,-2.216 -0.398,-0.673 -1.034,-1.152 -1.791,-1.346 z"
                         fill="#fdfbe2"
                         data-fill-palette-color="quaternary"
                         id="path3263" /><path
                         d="m 50.584,47.346 c -0.24,-0.062 -0.486,-0.093 -0.731,-0.093 -1.332,0 -2.494,0.903 -2.827,2.196 -0.196,0.757 -0.084,1.544 0.312,2.217 0.396,0.673 1.032,1.149 1.787,1.344 1.563,0.401 3.166,-0.571 3.56,-2.1 0.402,-1.564 -0.54,-3.161 -2.101,-3.564 z"
                         fill="#fdfbe2"
                         data-fill-palette-color="quaternary"
                         id="path3265" /><path
                         d="m 88.678,38.92 c 0.084,-0.613 0.143,-1.234 0.143,-1.871 0,-6.816 -4.968,-12.46 -11.476,-13.543 -3.297,-5.928 -9.617,-9.943 -16.88,-9.943 -2.505,0 -4.891,0.492 -7.086,1.36 -2.682,-2.153 -6.08,-3.448 -9.785,-3.448 -4.819,0 -9.125,2.18 -11.997,5.604 -1.009,-0.242 -2.056,-0.385 -3.138,-0.385 -7.344,0 -13.301,5.911 -13.388,13.235 -4.245,2.557 -7.094,7.196 -7.094,12.513 0,8.069 6.544,14.612 14.615,14.612 0.171,0 0.337,-0.02 0.507,-0.025 3.237,5.773 9.35,9.704 16.4,9.864 1.442,5.739 2.426,12.88 2.426,20.209 0,0.786 0.64,1.424 1.427,1.424 h 7.131 c 0.787,0 1.427,-0.638 1.427,-1.424 0,-7.687 1.082,-15.162 2.641,-21.035 1.849,1.076 3.99,1.703 6.282,1.703 3.494,0 6.649,-1.432 8.921,-3.737 1.837,0.715 3.827,1.121 5.917,1.121 9.031,0 16.352,-7.32 16.352,-16.352 -10e-4,-3.718 -1.255,-7.135 -3.345,-9.882 z m -16.05,-5.123 c -0.641,2.491 -2.882,4.23 -5.45,4.23 -0.475,0 -0.95,-0.061 -1.413,-0.181 -0.509,-0.13 -0.976,-0.35 -1.418,-0.606 l -9.71,9.972 c 0.781,1.262 1.072,2.826 0.673,4.374 -0.641,2.489 -2.882,4.229 -5.45,4.229 -0.474,0 -0.949,-0.061 -1.411,-0.18 -1.455,-0.374 -2.68,-1.294 -3.445,-2.591 -0.765,-1.297 -0.979,-2.814 -0.603,-4.272 0.123,-0.478 0.321,-0.917 0.553,-1.333 l -5.218,-4.896 -9.125,1.614 c -0.023,0.34 -0.073,0.682 -0.161,1.023 -0.644,2.491 -2.886,4.23 -5.454,4.23 -0.474,0 -0.949,-0.061 -1.411,-0.18 -3.006,-0.775 -4.824,-3.853 -4.052,-6.86 0.644,-2.492 2.887,-4.231 5.456,-4.231 0.473,0 0.947,0.06 1.409,0.179 1.729,0.444 3.062,1.653 3.738,3.17 l 9.795,-1.733 c 0.421,-0.077 0.853,0.054 1.164,0.346 l 5.711,5.359 c 0.888,-0.575 1.931,-0.918 3.047,-0.918 0.473,0 0.947,0.06 1.408,0.179 0.518,0.133 0.996,0.339 1.436,0.597 l 9.697,-9.958 c -0.021,-0.036 -0.052,-0.065 -0.073,-0.101 -0.767,-1.296 -0.981,-2.813 -0.605,-4.271 0.64,-2.492 2.882,-4.233 5.452,-4.233 0.473,0 0.947,0.061 1.408,0.18 1.458,0.375 2.683,1.296 3.448,2.594 0.765,1.295 0.979,2.811 0.604,4.268 z"
                         fill="#fdfbe2"
                         data-fill-palette-color="quaternary"
                         id="path3267" /></g></svg>
                </g>
              </svg>
            </g>
          </svg>
        </g>
      </svg>
    </g>
  </g>
</svg>
